<svg width="94" height="19" viewBox="0 0 94 19" fill="none" xmlns="http://www.w3.org/2000/svg">
<path d="M0.0721436 0.65C0.847144 0.65 1.29714 0.724999 1.29714 1.65V16.875C1.29714 17.775 0.847144 17.875 0.0721436 17.875V18H5.34714C7.27214 18 12.5221 17.875 12.5221 12.725C12.5221 8.925 8.72214 8.025 6.12214 8.2C7.79714 7.8 10.6721 6.65 10.6721 3.95C10.6721 1.6 8.57214 0.499999 5.17214 0.499999H0.0721436V0.65ZM5.27214 0.849999C6.74714 0.849999 9.44714 1.25 9.44714 4C9.44714 5.925 7.84714 7.475 4.42214 8.3L4.49714 8.75C4.99714 8.65 5.52214 8.6 6.04714 8.6C8.67214 8.6 11.2971 9.9 11.2971 12.775C11.2971 17.1 8.07214 17.65 5.12214 17.65C2.82214 17.65 2.34714 17.275 2.34714 16.875V1.65C2.34714 1.1 3.19714 0.849999 5.27214 0.849999ZM18.5643 18.35C21.8393 18.35 23.5643 16.225 24.4893 13.925V13.95C24.4893 16.975 25.3893 18.35 26.9643 18.35C28.5143 18.35 29.0143 17.125 29.0143 16.35H28.6893C28.6893 17.5 27.8893 18 27.0643 18C26.4143 18 25.5393 17.725 25.5393 14.425V5.15C25.5393 3 24.3143 0.149999 20.0643 0.149999C17.9143 0.149999 15.3893 1.075 14.4393 3.3L15.5393 3.65C16.3143 1.45 18.3893 0.499999 20.1393 0.499999C24.0893 0.499999 24.4893 3.4 24.4893 5.575V6.9C21.0643 6.9 13.5643 7.475 13.5643 13.6C13.5643 16.525 15.6893 18.35 18.5643 18.35ZM24.4893 7.125V9.025C24.4893 10.925 24.1643 18 18.5643 18C16.3143 18 14.6143 16.625 14.6143 13.6C14.6143 8.125 21.0143 7.125 24.4893 7.125ZM29.6317 0.499999V0.624999C30.4067 0.624999 30.8567 0.724999 30.8567 1.625V16.875C30.8567 17.775 30.4067 17.875 29.6317 17.875V18H34.7317C41.1817 18 43.8817 13.725 43.8817 8.45C43.8817 2.85 40.9567 0.149999 37.1817 0.149999C34.7067 0.149999 32.7067 1.7 31.9067 3.475V1.55C31.9067 0.974999 31.4317 0.499999 30.8567 0.499999H29.6317ZM31.9067 5.25C31.9067 3.15 34.0817 0.499999 37.0817 0.499999C40.6567 0.499999 42.6567 3.075 42.6567 8.45C42.6567 16.225 38.4067 17.65 34.8317 17.65C32.7567 17.65 31.9067 17.4 31.9067 16.875V5.25ZM45.0184 18H48.5184V17.875C47.7434 17.875 47.2934 17.775 47.2934 16.875V4.45C47.2934 3.85 46.8184 3.4 46.2434 3.4H45.0184V3.525C45.7934 3.525 46.2434 3.6 46.2434 4.525V16.875C46.2434 17.775 45.7934 17.875 45.0184 17.875V18ZM45.7934 1.375C45.9184 1.9 46.4684 2.225 46.9934 2.1C47.5184 1.975 47.8434 1.45 47.7184 0.9C47.5934 0.374999 47.0684 0.0499986 46.5434 0.174999C45.9934 0.3 45.6684 0.824999 45.7934 1.375ZM50.0233 18H53.5233V17.875C52.7483 17.875 52.2983 17.775 52.2983 16.875V4.45C52.2983 3.85 51.8233 3.4 51.2483 3.4H50.0233V3.525C50.7983 3.525 51.2483 3.6 51.2483 4.525V16.875C51.2483 17.775 50.7983 17.875 50.0233 17.875V18ZM50.7983 1.375C50.9233 1.9 51.4733 2.225 51.9983 2.1C52.5233 1.975 52.8483 1.45 52.7233 0.9C52.5983 0.374999 52.0733 0.0499986 51.5483 0.174999C50.9983 0.3 50.6733 0.824999 50.7983 1.375ZM56.2782 1.625L61.1532 9.675L56.5532 17.1C56.1282 17.725 55.7782 17.875 55.0782 17.875V18H57.9282V17.875C57.1532 17.875 56.6032 17.675 57.1032 16.875L66.5282 1.625C67.0282 0.824999 67.3532 0.624999 68.1532 0.624999V0.499999H65.3032V0.624999C66.0032 0.624999 66.5032 0.799999 66.2282 1.425L61.7782 8.65L57.5032 1.625C57.0532 0.874998 57.6032 0.624999 58.3782 0.624999V0.499999H54.6532V0.624999C55.4282 0.624999 55.7782 0.824999 56.2782 1.625ZM72.4462 18.35C75.7212 18.35 77.4462 16.225 78.3712 13.925V13.95C78.3712 16.975 79.2712 18.35 80.8462 18.35C82.3962 18.35 82.8962 17.125 82.8962 16.35H82.5712C82.5712 17.5 81.7712 18 80.9462 18C80.2962 18 79.4212 17.725 79.4212 14.425V5.15C79.4212 3 78.1962 0.149999 73.9462 0.149999C71.7962 0.149999 69.2712 1.075 68.3212 3.3L69.4212 3.65C70.1962 1.45 72.2712 0.499999 74.0212 0.499999C77.9712 0.499999 78.3712 3.4 78.3712 5.575V6.9C74.9462 6.9 67.4462 7.475 67.4462 13.6C67.4462 16.525 69.5712 18.35 72.4462 18.35ZM78.3712 7.125V9.025C78.3712 10.925 78.0462 18 72.4462 18C70.1962 18 68.4962 16.625 68.4962 13.6C68.4962 8.125 74.8962 7.125 78.3712 7.125ZM82.7137 0.499999V8.5H82.8387C82.8387 0.849999 82.8387 0.849999 87.6387 0.849999V16.875C87.6387 17.775 87.1887 17.875 86.4137 17.875V18H89.9137V17.875C89.1137 17.875 88.6887 17.775 88.6887 16.875V0.849999C93.4637 0.849999 93.4637 0.849999 93.4637 8.5H93.5887V0.499999H82.7137Z" fill="#C9AC8C"/>
</svg>
